<svg width="40" height="40" viewBox="0 0 40 40" fill="none" xmlns="http://www.w3.org/2000/svg">
<path d="M29.8858 12.7116H22.9182H22.1682V13.4616V17.1606V17.9106H22.9182H38H38.75V17.1606V2V1.25H38H34.2812H33.5312V2V7.18101C32.042 5.57375 30.3504 4.26231 28.4568 3.25157C25.9427 1.90958 23.0564 1.25 19.8192 1.25C14.6927 1.25 10.2997 3.09875 6.68208 6.77479C3.06626 10.449 1.25 14.8839 1.25 20.0389C1.25 25.194 3.06643 29.6171 6.68403 33.2661C10.3021 36.9156 14.6945 38.75 19.8192 38.75C24.0973 38.75 27.9219 37.4547 31.2663 34.8682C34.6113 32.2813 36.8258 28.8988 37.8997 24.7464L38.1423 23.8086H37.1736H32.1636H31.6439L31.4613 24.2952C30.552 26.7192 29.0234 28.6621 26.8598 30.1389C24.6903 31.6197 22.3495 32.3528 19.8207 32.3528C16.3928 32.3528 13.5188 31.1626 11.1525 28.772C8.78561 26.3807 7.60509 23.4776 7.60509 20.0169C7.60509 16.5561 8.78545 13.6565 11.1515 11.2715C13.5173 8.88688 16.3912 7.69935 19.8192 7.69935C22.2819 7.69935 24.3763 8.26919 26.1327 9.38053C27.5407 10.2714 28.7917 11.3803 29.8858 12.7116Z" fill="#20181A" stroke="#20181A" stroke-width="1.5"/>
</svg>
